<svg fill="#FFFFFF" role="img" viewBox="0 0 24 24" xmlns="http://www.w3.org/2000/svg"><title>Official Site</title><path d="M12 2C6.477 2 2 6.477 2 12s4.477 10 10 10 10-4.477 10-10S17.523 2 12 2zm7.93 9h-3.066a15.04 15.04 0 0 0-1.227-4.635A8.03 8.03 0 0 1 19.93 11zM12 4.044c.955 1.313 1.698 3.13 2.012 5.456H9.988C10.302 7.174 11.045 5.357 12 4.044zM7.363 6.365A15.04 15.04 0 0 0 6.136 11H3.07a8.03 8.03 0 0 1 4.293-4.635zM3.07 13h3.066a15.04 15.04 0 0 0 1.227 4.635A8.03 8.03 0 0 1 3.07 13zm4.293 4.635A15.04 15.04 0 0 0 9.988 14.5h4.024a15.04 15.04 0 0 0-1.227 4.635A8.02 8.02 0 0 1 7.363 17.635zM12 19.956c-.955-1.313-1.698-3.13-2.012-5.456h4.024c-.314 2.326-1.057 4.143-2.012 5.456zm4.637-1.321A15.04 15.04 0 0 0 17.864 13h3.066a8.03 8.03 0 0 1-4.293 4.635zM17.864 11a15.04 15.04 0 0 0 1.227-4.635A8.03 8.03 0 0 1 20.93 11h-3.066z"/></svg>
