<svg width="786" height="332" viewBox="0 0 786 332" fill="none" xmlns="http://www.w3.org/2000/svg">
<path d="M347.14 130.245C345.507 130.245 344.037 129.965 342.73 129.405C341.423 128.822 340.397 128.005 339.65 126.955C338.903 125.905 338.53 124.68 338.53 123.28H342.8C342.893 124.33 343.302 125.193 344.025 125.87C344.772 126.547 345.81 126.885 347.14 126.885C348.517 126.885 349.59 126.558 350.36 125.905C351.13 125.228 351.515 124.365 351.515 123.315C351.515 122.498 351.27 121.833 350.78 121.32C350.313 120.807 349.718 120.41 348.995 120.13C348.295 119.85 347.315 119.547 346.055 119.22C344.468 118.8 343.173 118.38 342.17 117.96C341.19 117.517 340.35 116.84 339.65 115.93C338.95 115.02 338.6 113.807 338.6 112.29C338.6 110.89 338.95 109.665 339.65 108.615C340.35 107.565 341.33 106.76 342.59 106.2C343.85 105.64 345.308 105.36 346.965 105.36C349.322 105.36 351.247 105.955 352.74 107.145C354.257 108.312 355.097 109.922 355.26 111.975H350.85C350.78 111.088 350.36 110.33 349.59 109.7C348.82 109.07 347.805 108.755 346.545 108.755C345.402 108.755 344.468 109.047 343.745 109.63C343.022 110.213 342.66 111.053 342.66 112.15C342.66 112.897 342.882 113.515 343.325 114.005C343.792 114.472 344.375 114.845 345.075 115.125C345.775 115.405 346.732 115.708 347.945 116.035C349.555 116.478 350.862 116.922 351.865 117.365C352.892 117.808 353.755 118.497 354.455 119.43C355.178 120.34 355.54 121.565 355.54 123.105C355.54 124.342 355.202 125.508 354.525 126.605C353.872 127.702 352.903 128.588 351.62 129.265C350.36 129.918 348.867 130.245 347.14 130.245ZM367.878 120.375L376.768 130H371.378L364.238 121.705V130H360.248V104.1H364.238V119.15L371.238 110.715H376.768L367.878 120.375ZM387.993 130.315C386.173 130.315 384.528 129.907 383.058 129.09C381.588 128.25 380.433 127.083 379.593 125.59C378.753 124.073 378.333 122.323 378.333 120.34C378.333 118.38 378.765 116.642 379.628 115.125C380.491 113.608 381.67 112.442 383.163 111.625C384.656 110.808 386.325 110.4 388.168 110.4C390.011 110.4 391.68 110.808 393.173 111.625C394.666 112.442 395.845 113.608 396.708 115.125C397.571 116.642 398.003 118.38 398.003 120.34C398.003 122.3 397.56 124.038 396.673 125.555C395.786 127.072 394.573 128.25 393.033 129.09C391.516 129.907 389.836 130.315 387.993 130.315ZM387.993 126.85C389.02 126.85 389.976 126.605 390.863 126.115C391.773 125.625 392.508 124.89 393.068 123.91C393.628 122.93 393.908 121.74 393.908 120.34C393.908 118.94 393.64 117.762 393.103 116.805C392.566 115.825 391.855 115.09 390.968 114.6C390.081 114.11 389.125 113.865 388.098 113.865C387.071 113.865 386.115 114.11 385.228 114.6C384.365 115.09 383.676 115.825 383.163 116.805C382.65 117.762 382.393 118.94 382.393 120.34C382.393 122.417 382.918 124.027 383.968 125.17C385.041 126.29 386.383 126.85 387.993 126.85ZM405.937 104.1V130H401.947V104.1H405.937ZM428.851 119.885C428.851 120.608 428.804 121.262 428.711 121.845H413.976C414.092 123.385 414.664 124.622 415.691 125.555C416.717 126.488 417.977 126.955 419.471 126.955C421.617 126.955 423.134 126.057 424.021 124.26H428.326C427.742 126.033 426.681 127.492 425.141 128.635C423.624 129.755 421.734 130.315 419.471 130.315C417.627 130.315 415.971 129.907 414.501 129.09C413.054 128.25 411.911 127.083 411.071 125.59C410.254 124.073 409.846 122.323 409.846 120.34C409.846 118.357 410.242 116.618 411.036 115.125C411.852 113.608 412.984 112.442 414.431 111.625C415.901 110.808 417.581 110.4 419.471 110.4C421.291 110.4 422.912 110.797 424.336 111.59C425.759 112.383 426.867 113.503 427.661 114.95C428.454 116.373 428.851 118.018 428.851 119.885ZM424.686 118.625C424.662 117.155 424.137 115.977 423.111 115.09C422.084 114.203 420.812 113.76 419.296 113.76C417.919 113.76 416.741 114.203 415.761 115.09C414.781 115.953 414.197 117.132 414.011 118.625H424.686ZM441.142 130.315C439.322 130.315 437.677 129.907 436.207 129.09C434.737 128.25 433.582 127.083 432.742 125.59C431.902 124.073 431.482 122.323 431.482 120.34C431.482 118.38 431.914 116.642 432.777 115.125C433.641 113.608 434.819 112.442 436.312 111.625C437.806 110.808 439.474 110.4 441.317 110.4C443.161 110.4 444.829 110.808 446.322 111.625C447.816 112.442 448.994 113.608 449.857 115.125C450.721 116.642 451.152 118.38 451.152 120.34C451.152 122.3 450.709 124.038 449.822 125.555C448.936 127.072 447.722 128.25 446.182 129.09C444.666 129.907 442.986 130.315 441.142 130.315ZM441.142 126.85C442.169 126.85 443.126 126.605 444.012 126.115C444.922 125.625 445.657 124.89 446.217 123.91C446.777 122.93 447.057 121.74 447.057 120.34C447.057 118.94 446.789 117.762 446.252 116.805C445.716 115.825 445.004 115.09 444.117 114.6C443.231 114.11 442.274 113.865 441.247 113.865C440.221 113.865 439.264 114.11 438.377 114.6C437.514 115.09 436.826 115.825 436.312 116.805C435.799 117.762 435.542 118.94 435.542 120.34C435.542 122.417 436.067 124.027 437.117 125.17C438.191 126.29 439.532 126.85 441.142 126.85ZM478.442 110.4C479.958 110.4 481.312 110.715 482.502 111.345C483.715 111.975 484.66 112.908 485.337 114.145C486.037 115.382 486.387 116.875 486.387 118.625V130H482.432V119.22C482.432 117.493 482 116.175 481.137 115.265C480.273 114.332 479.095 113.865 477.602 113.865C476.108 113.865 474.918 114.332 474.032 115.265C473.168 116.175 472.737 117.493 472.737 119.22V130H468.782V119.22C468.782 117.493 468.35 116.175 467.487 115.265C466.623 114.332 465.445 113.865 463.952 113.865C462.458 113.865 461.268 114.332 460.382 115.265C459.518 116.175 459.087 117.493 459.087 119.22V130H455.097V110.715H459.087V112.92C459.74 112.127 460.568 111.508 461.572 111.065C462.575 110.622 463.648 110.4 464.792 110.4C466.332 110.4 467.708 110.727 468.922 111.38C470.135 112.033 471.068 112.978 471.722 114.215C472.305 113.048 473.215 112.127 474.452 111.45C475.688 110.75 477.018 110.4 478.442 110.4Z" fill="#EB493A"/>
<path d="M397.88 172.889C396.024 169.487 393.472 166.896 390.224 165.117C386.976 163.339 383.187 162.449 378.856 162.449C374.061 162.449 369.808 163.532 366.096 165.697C362.384 167.863 359.484 170.956 357.396 174.977C355.308 178.999 354.264 183.639 354.264 188.897C354.264 194.311 355.308 199.028 357.396 203.049C359.561 207.071 362.539 210.164 366.328 212.329C370.117 214.495 374.525 215.577 379.552 215.577C385.739 215.577 390.804 213.953 394.748 210.705C398.692 207.38 401.283 202.779 402.52 196.901H374.68V184.489H418.528V198.641C417.445 204.287 415.125 209.507 411.568 214.301C408.011 219.096 403.409 222.963 397.764 225.901C392.196 228.763 385.932 230.193 378.972 230.193C371.161 230.193 364.085 228.453 357.744 224.973C351.48 221.416 346.531 216.505 342.896 210.241C339.339 203.977 337.56 196.863 337.56 188.897C337.56 180.932 339.339 173.817 342.896 167.553C346.531 161.212 351.48 156.301 357.744 152.821C364.085 149.264 371.123 147.485 378.856 147.485C387.981 147.485 395.908 149.728 402.636 154.213C409.364 158.621 414.004 164.847 416.556 172.889H397.88ZM426.367 197.133C426.367 190.637 427.643 184.876 430.195 179.849C432.824 174.823 436.343 170.956 440.751 168.249C445.236 165.543 450.224 164.189 455.715 164.189C460.51 164.189 464.686 165.156 468.243 167.089C471.878 169.023 474.778 171.459 476.943 174.397V165.233H493.299V229.497H476.943V220.101C474.855 223.117 471.955 225.631 468.243 227.641C464.608 229.575 460.394 230.541 455.599 230.541C450.186 230.541 445.236 229.149 440.751 226.365C436.343 223.581 432.824 219.676 430.195 214.649C427.643 209.545 426.367 203.707 426.367 197.133ZM476.943 197.365C476.943 193.421 476.17 190.057 474.623 187.273C473.076 184.412 470.988 182.247 468.359 180.777C465.73 179.231 462.907 178.457 459.891 178.457C456.875 178.457 454.091 179.192 451.539 180.661C448.987 182.131 446.899 184.296 445.275 187.157C443.728 189.941 442.955 193.267 442.955 197.133C442.955 201 443.728 204.403 445.275 207.341C446.899 210.203 448.987 212.407 451.539 213.953C454.168 215.5 456.952 216.273 459.891 216.273C462.907 216.273 465.73 215.539 468.359 214.069C470.988 212.523 473.076 210.357 474.623 207.573C476.17 204.712 476.943 201.309 476.943 197.365ZM588.968 164.305C596.856 164.305 603.198 166.741 607.992 171.613C612.864 176.408 615.3 183.136 615.3 191.797V229.497H599.06V194.001C599.06 188.975 597.784 185.147 595.232 182.517C592.68 179.811 589.2 178.457 584.792 178.457C580.384 178.457 576.866 179.811 574.236 182.517C571.684 185.147 570.408 188.975 570.408 194.001V229.497H554.168V194.001C554.168 188.975 552.892 185.147 550.34 182.517C547.788 179.811 544.308 178.457 539.9 178.457C535.415 178.457 531.858 179.811 529.228 182.517C526.676 185.147 525.4 188.975 525.4 194.001V229.497H509.16V165.233H525.4V173.005C527.488 170.299 530.156 168.172 533.404 166.625C536.73 165.079 540.364 164.305 544.308 164.305C549.335 164.305 553.82 165.388 557.764 167.553C561.708 169.641 564.763 172.657 566.928 176.601C569.016 172.889 572.032 169.912 575.976 167.669C579.998 165.427 584.328 164.305 588.968 164.305ZM690.451 195.973C690.451 198.293 690.296 200.381 689.987 202.237H643.007C643.394 206.877 645.018 210.512 647.879 213.141C650.74 215.771 654.259 217.085 658.435 217.085C664.467 217.085 668.759 214.495 671.311 209.313H688.827C686.971 215.5 683.414 220.604 678.155 224.625C672.896 228.569 666.439 230.541 658.783 230.541C652.596 230.541 647.028 229.188 642.079 226.481C637.207 223.697 633.379 219.792 630.595 214.765C627.888 209.739 626.535 203.939 626.535 197.365C626.535 190.715 627.888 184.876 630.595 179.849C633.302 174.823 637.091 170.956 641.963 168.249C646.835 165.543 652.442 164.189 658.783 164.189C664.892 164.189 670.344 165.504 675.139 168.133C680.011 170.763 683.762 174.513 686.391 179.385C689.098 184.18 690.451 189.709 690.451 195.973ZM673.631 191.333C673.554 187.157 672.046 183.832 669.107 181.357C666.168 178.805 662.572 177.529 658.319 177.529C654.298 177.529 650.895 178.767 648.111 181.241C645.404 183.639 643.742 187.003 643.123 191.333H673.631Z" fill="#EB493A"/>
<path d="M231.5 76C253.591 76 271.5 93.9086 271.5 116V216C271.5 238.091 253.591 256 231.5 256H131.5C109.409 256 91.5 238.091 91.5 216V116C91.5 93.9086 109.409 76 131.5 76H231.5ZM142.5 142C139.739 142 137.5 144.239 137.5 147V161H123.5C120.739 161 118.5 163.239 118.5 166V174C118.5 176.761 120.739 179 123.5 179H137.5V193C137.5 195.761 139.739 198 142.5 198H150.5C153.261 198 155.5 195.761 155.5 193V179H169.5C172.261 179 174.5 176.761 174.5 174V166C174.5 163.239 172.261 161 169.5 161H155.5V147C155.5 144.239 153.261 142 150.5 142H142.5ZM220 145C206.469 145 195.5 155.969 195.5 169.5C195.5 183.031 206.469 194 220 194C233.531 194 244.5 183.031 244.5 169.5C244.5 155.969 233.531 145 220 145Z" fill="#EB493A"/>
</svg>
